2.6Hz3min_grf.mot
version=1
nRows=15
nColumns 19
inDegrees=yes
endheader
time	1_ground_force_vx	1_ground_force_vy	1_ground_force_vz	1_ground_force_px	1_ground_force_py	1_ground_force_pz	1_ground_torque_x	1_ground_torque_y	1_ground_torque_z	2_ground_force_vx	2_ground_force_vy	2_ground_force_vz	2_ground_force_px	2_ground_force_py	2_ground_force_pz	2_ground_torque_x	2_ground_torque_y	2_ground_torque_z
            1.253500	           -0.228403	            0.539180	            0.369735	           -0.233013	            0.005581	           -0.255695	           -0.091387	           -0.230631	           -0.142142	           -0.272439	           -2.395111	            0.038506	           -0.232311	            0.006130	           -0.833667	           -0.243365	           -0.237132	           -0.019590
            1.254000	           -0.273952	            0.178246	            0.460015	           -0.233013	            0.005581	           -0.255695	           -0.226632	           -0.137999	           -0.199745	           -0.461209	           -2.027156	           -0.053956	           -0.232311	            0.006130	           -0.833667	           -0.206118	           -0.151788	           -0.057002
            1.254500	            0.000878	            0.178693	            0.367620	           -0.233013	            0.005581	           -0.255695	           -0.072256	           -0.027409	           -0.075137	            0.101757	           -2.210111	            0.179788	           -0.232311	            0.006130	           -0.833667	           -0.187476	           -0.123026	           -0.151160
            1.255000	            0.092387	           -0.722028	            0.225960	           -0.233013	            0.005581	           -0.255695	           -0.065968	            0.120766	           -0.126970	            0.144661	           -1.105387	            0.277566	           -0.232311	            0.006130	           -0.833667	           -0.337880	           -0.076708	           -0.037826
            1.255500	            0.046134	            0.900551	            0.187175	           -0.233013	            0.005581	           -0.255695	           -0.177931	            0.148855	           -0.222575	            0.564775	           -0.733894	           -0.190580	           -0.232311	            0.006130	           -0.833667	           -0.150332	           -0.000139	           -0.113037
            1.256000	            0.276163	            0.178353	            0.458649	           -0.233013	            0.005581	           -0.255695	           -0.151504	           -0.036054	           -0.176038	            0.658351	           -0.732551	           -0.472188	           -0.232311	            0.006130	           -0.833667	           -0.225194	           -0.066916	           -0.018990
            1.256500	            0.046379	            0.179292	            0.229939	           -0.233013	            0.005581	           -0.255695	           -0.179091	           -0.138173	           -0.110988	           -0.092638	           -0.366459	           -0.611340	           -0.232311	            0.006130	           -0.833667	           -0.319205	           -0.048215	           -0.056583
            1.257000	            0.092222	            0.179300	            0.229825	           -0.233013	            0.005581	           -0.255695	           -0.160210	           -0.193770	           -0.071722	            0.284052	           -0.916714	           -0.848111	           -0.232311	            0.006130	           -0.833667	           -0.318949	           -0.123702	           -0.094554
            1.257500	           -0.090646	            0.538813	            0.461106	           -0.233013	            0.005581	           -0.255695	           -0.132979	           -0.165627	           -0.192290	           -0.087321	           -1.839646	           -0.616596	           -0.232311	            0.006130	           -0.833667	           -0.281107	           -0.180820	            0.056030
            1.258000	            0.092857	           -0.182214	            0.457559	           -0.233013	            0.005581	           -0.255695	           -0.075797	            0.037098	           -0.014535	            0.100743	           -2.023117	           -0.617333	           -0.232311	            0.006130	           -0.833667	           -0.206331	           -0.095004	           -0.075650
            1.258500	            0.000665	            0.719686	            0.324083	           -0.233013	            0.005581	           -0.255695	           -0.089732	            0.148695	           -0.187146	            0.194566	           -2.023783	           -0.335804	           -0.232311	            0.006130	           -0.833667	           -0.319051	           -0.095344	           -0.094452
            1.259000	            0.092776	           -0.362283	            0.410930	           -0.233013	            0.005581	           -0.255695	           -0.243159	            0.139547	           -0.201655	            0.189935	           -0.734912	           -0.284277	           -0.232311	            0.006130	           -0.833667	           -0.225286	           -0.056992	           -0.150908
            1.259500	            0.184022	            0.179121	            0.275453	           -0.233013	            0.005581	           -0.255695	           -0.124777	           -0.054826	           -0.123699	            0.753401	           -1.100677	           -0.426614	           -0.232311	            0.006130	           -0.833667	           -0.225150	           -0.085619	           -0.075608
            1.260000	            0.138506	           -0.362078	            0.364960	           -0.233013	            0.005581	           -0.255695	           -0.109556	           -0.147275	           -0.126069	            0.520542	           -1.470322	           -0.287044	           -0.232311	            0.006130	           -0.833667	           -0.206451	           -0.057328	           -0.037815
            1.260500	            0.185014	            0.357618	            0.688930	           -0.233013	            0.005581	           -0.255695	           -0.067368	           -0.239668	           -0.124641	            0.426075	           -1.285675	           -0.520988	           -0.232311	            0.006130	           -0.833667	           -0.225193	           -0.076099	           -0.094425
